<svg xmlns="http://www.w3.org/2000/svg" xmlns:xlink="http://www.w3.org/1999/xlink" width="5000" zoomAndPan="magnify" viewBox="0 0 3750 3749.999967" height="5000" preserveAspectRatio="xMidYMid meet" version="1.0"><defs><clipPath id="95c1f02926"><path d="M 18.75 0 L 3731.25 0 C 3741.605469 0 3750 8.394531 3750 18.75 L 3750 3731.25 C 3750 3741.605469 3741.605469 3750 3731.25 3750 L 18.75 3750 C 8.394531 3750 0 3741.605469 0 3731.25 L 0 18.75 C 0 8.394531 8.394531 0 18.75 0 Z M 18.75 0 " clip-rule="nonzero"/></clipPath><clipPath id="8d4f5a3c35"><path d="M 0 0 L 3750 0 L 3750 3750 L 0 3750 Z M 0 0 " clip-rule="nonzero"/></clipPath><clipPath id="f0fd69ae3a"><path d="M 18.75 0 L 3731.25 0 C 3741.605469 0 3750 8.394531 3750 18.75 L 3750 3731.25 C 3750 3741.605469 3741.605469 3750 3731.25 3750 L 18.75 3750 C 8.394531 3750 0 3741.605469 0 3731.25 L 0 18.75 C 0 8.394531 8.394531 0 18.75 0 Z M 18.75 0 " clip-rule="nonzero"/></clipPath><clipPath id="e42500b5d7"><rect x="0" width="3750" y="0" height="3750"/></clipPath><clipPath id="a0d56d71ea"><path d="M 37 444.980469 L 3687 444.980469 L 3687 3293.984375 L 37 3293.984375 Z M 37 444.980469 " clip-rule="nonzero"/></clipPath></defs><g clip-path="url(#95c1f02926)"><g transform="matrix(1, 0, 0, 1, 0, 0.000000000000269639)"><g clip-path="url(#e42500b5d7)"><g clip-path="url(#8d4f5a3c35)"><g clip-path="url(#f0fd69ae3a)"><rect x="-825" width="5400" fill="#000000" height="5399.999952" y="-824.999993" fill-opacity="1"/></g></g></g></g><path stroke-linecap="butt" transform="matrix(0.75, 0, 0, 0.75, 0.00001675, 0.0001)" fill="none" stroke-linejoin="miter" d="M 24.999979 -0.000133333 L 4975.000229 -0.000133333 C 4988.807522 -0.000133333 5000.000231 11.192576 5000.000231 24.999868 L 5000.000231 4975.000118 C 5000.000231 4988.807411 4988.807522 5000.00012 4975.000229 5000.00012 L 24.999979 5000.00012 C 11.192687 5000.00012 -0.0000223333 4988.807411 -0.0000223333 4975.000118 L -0.0000223333 24.999868 C -0.0000223333 11.192576 11.192687 -0.000133333 24.999979 -0.000133333 Z M 24.999979 -0.000133333 " stroke="#4184e8" stroke-width="4" stroke-opacity="1" stroke-miterlimit="4"/></g><g clip-path="url(#a0d56d71ea)"><path fill="#cdcdcd" d="M 3426.445312 1305.710938 C 3411.507812 1194.851562 3409.5 1003.578125 3512.601562 939.535156 C 3514.328125 938.386719 3515.761719 936.664062 3517.484375 935.226562 C 3601.632812 908.230469 3659.9375 870.320312 3614.269531 819.484375 L 2371.277344 444.980469 L 358.878906 724.710938 C 358.878906 724.710938 128.546875 757.738281 148.9375 1115.875 C 160.140625 1310.59375 221.3125 1406.230469 274.730469 1453.332031 L 109.59375 1503.304688 C 63.925781 1554.136719 122.230469 1591.761719 206.378906 1618.757812 C 208.101562 1620.195312 209.25 1621.917969 211.261719 1623.066406 C 314.078125 1687.398438 312.066406 1878.386719 297.417969 1989.53125 C -72.492188 2094.359375 60.195312 2128.820312 60.195312 2128.820312 L 141.472656 2148.351562 C 84.320312 2200.046875 27.453125 2297.695312 38.367188 2483.222656 C 58.757812 2841.359375 248.023438 2866.058594 248.023438 2866.058594 L 1565.113281 3293.984375 L 3552.8125 2812.640625 C 3552.8125 2812.640625 3685.496094 2778.175781 3315.585938 2673.0625 C 3300.652344 2562.492188 3298.640625 2371.21875 3401.746094 2306.882812 C 3403.753906 2305.734375 3404.902344 2304.011719 3406.625 2302.578125 C 3490.777344 2275.582031 3549.078125 2237.957031 3503.414062 2187.125 L 3416.964844 2160.988281 C 3474.691406 2126.238281 3561.140625 2035.484375 3574.636719 1799.40625 C 3584.117188 1637.425781 3541.609375 1542.363281 3492.785156 1486.359375 L 3663.382812 1445.003906 C 3663.382812 1445.003906 3796.355469 1410.828125 3426.445312 1305.710938 Z M 1763.851562 1301.117188 L 2097.863281 1232.476562 L 3227.703125 1000.132812 L 3396 965.667969 C 3342.007812 1064.179688 3344.304688 1198.875 3353.207031 1285.320312 C 3355.21875 1304.851562 3357.515625 1322.65625 3359.527344 1336.441406 L 3175.433594 1382.105469 L 1749.78125 1736.796875 Z M 327.863281 1649.488281 L 496.160156 1683.953125 L 1580.90625 1907.105469 L 1675.683594 1926.632812 L 1960.011719 1984.9375 L 1973.796875 2420.613281 L 508.511719 2056.160156 L 364.050781 2020.261719 C 366.347656 2006.476562 368.359375 1988.667969 370.65625 1969.140625 C 379.269531 1882.691406 381.570312 1747.996094 327.863281 1649.488281 Z M 262.382812 1098.640625 C 260.371094 1003.292969 277.316406 934.363281 311.78125 899.328125 C 333.605469 876.925781 359.453125 872.328125 376.972656 872.328125 C 386.449219 872.328125 393.054688 873.765625 393.632812 873.765625 L 1260.683594 1156.367188 L 1693.203125 1297.382812 L 1679.128906 1736.222656 L 465.429688 1395.890625 L 401.386719 1378.085938 C 399.085938 1377.511719 395.640625 1376.9375 393.34375 1376.9375 C 388.175781 1376.363281 268.414062 1365.449219 262.382812 1098.640625 Z M 1568.269531 3103.859375 L 290.527344 2745.722656 C 288.230469 2744.863281 285.070312 2744.574219 282.484375 2744.289062 C 277.316406 2744 157.265625 2733.085938 151.523438 2466.28125 C 149.511719 2370.929688 166.457031 2302.003906 200.921875 2266.964844 C 222.75 2244.5625 248.308594 2239.96875 266.113281 2239.96875 C 275.304688 2239.96875 282.199219 2241.402344 282.484375 2241.402344 C 282.484375 2241.402344 282.773438 2241.402344 282.484375 2241.402344 L 1582.34375 2665.019531 Z M 3242.347656 2652.957031 C 3244.359375 2672.488281 3246.65625 2690.292969 3248.667969 2704.078125 L 1638.921875 3104.433594 L 1652.707031 2668.753906 L 1997.058594 2597.816406 L 2047.890625 2610.164062 L 2238.304688 2548.417969 L 3116.558594 2367.769531 L 3284.855469 2333.308594 C 3231.148438 2431.527344 3233.445312 2566.226562 3242.347656 2652.957031 Z M 3331.09375 2060.46875 C 3328.222656 2060.757812 3325.0625 2061.042969 3322.476562 2061.90625 L 3200.992188 2096.082031 L 2044.734375 2420.039062 L 2030.660156 1981.203125 L 2410.050781 1857.417969 L 3328.507812 1557.871094 C 3328.507812 1557.871094 3376.757812 1547.246094 3412.082031 1583.144531 C 3446.261719 1618.183594 3463.492188 1687.109375 3461.480469 1782.460938 C 3455.449219 2049.269531 3335.402344 2060.179688 3331.09375 2060.46875 Z M 3331.09375 2060.46875 " fill-opacity="1" fill-rule="nonzero"/></g></svg>