<svg xmlns="http://www.w3.org/2000/svg" xmlns:xlink="http://www.w3.org/1999/xlink" width="1920" zoomAndPan="magnify" viewBox="0 0 1440 599.999999" height="800" preserveAspectRatio="xMidYMid meet" version="1.0"><defs><g/><clipPath id="32d073f8be"><rect x="0" width="323" y="0" height="600"/></clipPath><clipPath id="354721e315"><rect x="0" width="323" y="0" height="600"/></clipPath><clipPath id="bfe8025237"><path d="M 0.921875 0 L 331 0 L 331 600 L 0.921875 600 Z M 0.921875 0 " clip-rule="nonzero"/></clipPath><clipPath id="4466df2e6e"><rect x="0" width="331" y="0" height="600"/></clipPath><clipPath id="32303a0e7a"><path d="M 1056 0 L 1393.160156 0 L 1393.160156 600 L 1056 600 Z M 1056 0 " clip-rule="nonzero"/></clipPath><clipPath id="29ef7322df"><rect x="0" width="338" y="0" height="600"/></clipPath><clipPath id="523d6c1187"><rect x="0" width="1394" y="0" height="600"/></clipPath></defs><g transform="matrix(1, 0, 0, 1, 13, -0.000000000000034788)"><g clip-path="url(#523d6c1187)"><g transform="matrix(1, 0, 0, 1, 358, -0.000000000000034788)"><g clip-path="url(#32d073f8be)"><g fill="#4ac092" fill-opacity="1"><g transform="translate(0.50059, 444.546112)"><g><path d="M 160.265625 6.375 C 133.796875 6.375 110.429688 0.65625 90.171875 -10.78125 C 69.921875 -22.21875 54.078125 -38.0625 42.640625 -58.3125 C 31.203125 -78.570312 25.484375 -101.609375 25.484375 -127.421875 C 25.484375 -153.554688 31.203125 -176.585938 42.640625 -196.515625 C 54.078125 -216.453125 69.921875 -232.140625 90.171875 -243.578125 C 110.429688 -255.015625 133.796875 -260.734375 160.265625 -260.734375 C 186.722656 -260.734375 210.082031 -255.015625 230.34375 -243.578125 C 250.601562 -232.140625 266.445312 -216.453125 277.875 -196.515625 C 289.3125 -176.585938 295.03125 -153.554688 295.03125 -127.421875 C 295.03125 -101.609375 289.3125 -78.570312 277.875 -58.3125 C 266.445312 -38.0625 250.601562 -22.21875 230.34375 -10.78125 C 210.082031 0.65625 186.722656 6.375 160.265625 6.375 Z M 66.65625 -127.421875 C 66.65625 -108.796875 70.65625 -92.375 78.65625 -78.15625 C 86.664062 -63.945312 97.691406 -52.921875 111.734375 -45.078125 C 125.785156 -37.242188 141.960938 -33.328125 160.265625 -33.328125 C 178.554688 -33.328125 194.726562 -37.242188 208.78125 -45.078125 C 222.832031 -52.921875 233.859375 -63.945312 241.859375 -78.15625 C 249.867188 -92.375 253.875 -108.796875 253.875 -127.421875 C 253.875 -146.046875 249.867188 -162.378906 241.859375 -176.421875 C 233.859375 -190.472656 222.832031 -201.5 208.78125 -209.5 C 194.726562 -217.507812 178.554688 -221.515625 160.265625 -221.515625 C 141.960938 -221.515625 125.785156 -217.507812 111.734375 -209.5 C 97.691406 -201.5 86.664062 -190.472656 78.65625 -176.421875 C 70.65625 -162.378906 66.65625 -146.046875 66.65625 -127.421875 Z M 66.65625 -127.421875 "/></g></g></g></g></g><g transform="matrix(1, 0, 0, 1, 707, -0.000000000000034788)"><g clip-path="url(#354721e315)"><g fill="#1761d0" fill-opacity="1"><g transform="translate(0.729111, 444.546112)"><g><path d="M 160.265625 6.375 C 133.796875 6.375 110.429688 0.65625 90.171875 -10.78125 C 69.921875 -22.21875 54.078125 -38.0625 42.640625 -58.3125 C 31.203125 -78.570312 25.484375 -101.609375 25.484375 -127.421875 C 25.484375 -153.554688 31.203125 -176.585938 42.640625 -196.515625 C 54.078125 -216.453125 69.921875 -232.140625 90.171875 -243.578125 C 110.429688 -255.015625 133.796875 -260.734375 160.265625 -260.734375 C 186.722656 -260.734375 210.082031 -255.015625 230.34375 -243.578125 C 250.601562 -232.140625 266.445312 -216.453125 277.875 -196.515625 C 289.3125 -176.585938 295.03125 -153.554688 295.03125 -127.421875 C 295.03125 -101.609375 289.3125 -78.570312 277.875 -58.3125 C 266.445312 -38.0625 250.601562 -22.21875 230.34375 -10.78125 C 210.082031 0.65625 186.722656 6.375 160.265625 6.375 Z M 66.65625 -127.421875 C 66.65625 -108.796875 70.65625 -92.375 78.65625 -78.15625 C 86.664062 -63.945312 97.691406 -52.921875 111.734375 -45.078125 C 125.785156 -37.242188 141.960938 -33.328125 160.265625 -33.328125 C 178.554688 -33.328125 194.726562 -37.242188 208.78125 -45.078125 C 222.832031 -52.921875 233.859375 -63.945312 241.859375 -78.15625 C 249.867188 -92.375 253.875 -108.796875 253.875 -127.421875 C 253.875 -146.046875 249.867188 -162.378906 241.859375 -176.421875 C 233.859375 -190.472656 222.832031 -201.5 208.78125 -209.5 C 194.726562 -217.507812 178.554688 -221.515625 160.265625 -221.515625 C 141.960938 -221.515625 125.785156 -217.507812 111.734375 -209.5 C 97.691406 -201.5 86.664062 -190.472656 78.65625 -176.421875 C 70.65625 -162.378906 66.65625 -146.046875 66.65625 -127.421875 Z M 66.65625 -127.421875 "/></g></g></g></g></g><g clip-path="url(#bfe8025237)"><g transform="matrix(1, 0, 0, 1, -0.000000000000001776, -0.000000000000034788)"><g clip-path="url(#4466df2e6e)"><g fill="#4ac092" fill-opacity="1"><g transform="translate(1.075636, 490.288927)"><g><path d="M 49.984375 0 L 49.984375 -343.0625 L 182.8125 -343.0625 C 215.800781 -343.0625 242.179688 -334.8125 261.953125 -318.3125 C 281.722656 -301.8125 291.609375 -279.675781 291.609375 -251.90625 C 291.609375 -235.238281 287.6875 -220.535156 279.84375 -207.796875 C 272 -195.054688 261.050781 -185.09375 247 -177.90625 C 264.644531 -170.71875 278.125 -160.097656 287.4375 -146.046875 C 296.75 -131.992188 301.40625 -115.332031 301.40625 -96.0625 C 301.40625 -66.320312 291.359375 -42.875 271.265625 -25.71875 C 251.171875 -8.570312 223.804688 0 189.171875 0 Z M 93.125 -40.1875 L 188.203125 -40.1875 C 210.410156 -40.1875 227.476562 -45.25 239.40625 -55.375 C 251.332031 -65.507812 257.296875 -79.722656 257.296875 -98.015625 C 257.296875 -116.316406 251.25 -130.445312 239.15625 -140.40625 C 227.070312 -150.375 209.921875 -155.359375 187.703125 -155.359375 L 93.125 -155.359375 Z M 93.125 -194.5625 L 181.828125 -194.5625 C 203.066406 -194.5625 219.320312 -199.300781 230.59375 -208.78125 C 241.863281 -218.257812 247.5 -231.492188 247.5 -248.484375 C 247.5 -265.796875 241.78125 -279.1875 230.34375 -288.65625 C 218.90625 -298.132812 202.734375 -302.875 181.828125 -302.875 L 93.125 -302.875 Z M 93.125 -194.5625 "/></g></g></g></g></g></g><g clip-path="url(#32303a0e7a)"><g transform="matrix(1, 0, 0, 1, 1056, -0.000000000000034788)"><g clip-path="url(#29ef7322df)"><g fill="#4ac092" fill-opacity="1"><g transform="translate(0.957807, 490.288927)"><g><path d="M 49.984375 0 L 49.984375 -343.0625 L 93.125 -343.0625 L 93.125 -195.546875 L 142.125 -195.546875 C 165.320312 -195.546875 182.800781 -199.710938 194.5625 -208.046875 C 206.320312 -216.378906 215.632812 -229.859375 222.5 -248.484375 L 257.796875 -343.0625 L 303.375 -343.0625 L 261.21875 -231.328125 C 256.320312 -218.253906 250.359375 -206.898438 243.328125 -197.265625 C 236.304688 -187.628906 227.894531 -179.539062 218.09375 -173 L 316.59375 0 L 266.609375 0 L 177.90625 -157.3125 C 167.125 -155.351562 155.195312 -154.375 142.125 -154.375 L 93.125 -154.375 L 93.125 0 Z M 49.984375 0 "/></g></g></g></g></g></g></g></g></svg>