<svg xmlns="http://www.w3.org/2000/svg" xmlns:xlink="http://www.w3.org/1999/xlink" width="5000" zoomAndPan="magnify" viewBox="0 0 3750 3749.999967" height="5000" preserveAspectRatio="xMidYMid meet" version="1.0"><defs><clipPath id="c99a1f39bb"><path d="M 18.75 0 L 3731.25 0 C 3741.605469 0 3750 8.394531 3750 18.75 L 3750 3731.25 C 3750 3741.605469 3741.605469 3750 3731.25 3750 L 18.75 3750 C 8.394531 3750 0 3741.605469 0 3731.25 L 0 18.75 C 0 8.394531 8.394531 0 18.75 0 Z M 18.75 0 " clip-rule="nonzero"/></clipPath><clipPath id="6e7e6438c9"><path d="M 0 0 L 3750 0 L 3750 3750 L 0 3750 Z M 0 0 " clip-rule="nonzero"/></clipPath><clipPath id="b39cf50fe5"><path d="M 18.75 0 L 3731.25 0 C 3741.605469 0 3750 8.394531 3750 18.75 L 3750 3731.25 C 3750 3741.605469 3741.605469 3750 3731.25 3750 L 18.75 3750 C 8.394531 3750 0 3741.605469 0 3731.25 L 0 18.75 C 0 8.394531 8.394531 0 18.75 0 Z M 18.75 0 " clip-rule="nonzero"/></clipPath><clipPath id="5efd3984d2"><rect x="0" width="3750" y="0" height="3750"/></clipPath><clipPath id="dd7fe1fce6"><path d="M 1670 128.816406 L 1907 128.816406 L 1907 672 L 1670 672 Z M 1670 128.816406 " clip-rule="nonzero"/></clipPath><clipPath id="db8940f530"><path d="M 1985 128.816406 L 2222 128.816406 L 2222 672 L 1985 672 Z M 1985 128.816406 " clip-rule="nonzero"/></clipPath><clipPath id="96f30f9bbb"><path d="M 1513 128.816406 L 2379 128.816406 L 2379 357 L 1513 357 Z M 1513 128.816406 " clip-rule="nonzero"/></clipPath><clipPath id="d8db777182"><path d="M 260.207031 1772 L 1435 1772 L 1435 2009 L 260.207031 2009 Z M 260.207031 1772 " clip-rule="nonzero"/></clipPath></defs><g clip-path="url(#c99a1f39bb)"><g transform="matrix(1, 0, 0, 1, 0, 0.000000000000269639)"><g clip-path="url(#5efd3984d2)"><g clip-path="url(#6e7e6438c9)"><g clip-path="url(#b39cf50fe5)"><rect x="-825" width="5400" fill="#000000" height="5399.999952" y="-824.999993" fill-opacity="1"/></g></g></g></g><path stroke-linecap="butt" transform="matrix(0.75, 0, 0, 0.75, 0.00001675, 0.0001)" fill="none" stroke-linejoin="miter" d="M 24.999979 -0.000133333 L 4975.000229 -0.000133333 C 4988.807522 -0.000133333 5000.000231 11.192576 5000.000231 24.999868 L 5000.000231 4975.000118 C 5000.000231 4988.807411 4988.807522 5000.00012 4975.000229 5000.00012 L 24.999979 5000.00012 C 11.192687 5000.00012 -0.0000223333 4988.807411 -0.0000223333 4975.000118 L -0.0000223333 24.999868 C -0.0000223333 11.192576 11.192687 -0.000133333 24.999979 -0.000133333 Z M 24.999979 -0.000133333 " stroke="#a6a6a6" stroke-width="2" stroke-opacity="1" stroke-miterlimit="4"/></g><path fill="#cdcdcd" d="M 1130.539062 959.789062 C 1353.421875 779.53125 1637.019531 671.472656 1945.78125 671.472656 C 2661.925781 671.472656 3243.433594 1252.980469 3243.433594 1969.125 C 3243.433594 2685.273438 2661.925781 3266.777344 1945.78125 3266.777344 C 1561.832031 3266.777344 1216.578125 3099.578125 978.910156 2834.226562 C 935.5 2785.625 860.785156 2781.535156 812.339844 2824.945312 C 763.738281 2868.359375 759.648438 2943.074219 803.058594 2991.519531 C 1083.980469 3305.316406 1491.996094 3502.714844 1945.78125 3502.714844 C 2792.164062 3502.714844 3479.371094 2815.511719 3479.371094 1969.125 C 3479.371094 1122.742188 2792.164062 435.535156 1945.78125 435.535156 C 1580.863281 435.535156 1245.519531 563.257812 982.214844 776.386719 C 931.566406 817.28125 923.703125 891.679688 964.597656 942.328125 C 1005.652344 992.976562 1079.890625 1000.683594 1130.539062 959.789062 Z M 1130.539062 959.789062 " fill-opacity="1" fill-rule="evenodd"/><g clip-path="url(#dd7fe1fce6)"><path fill="#cdcdcd" d="M 1906.457031 553.503906 L 1906.457031 238.921875 C 1906.457031 173.804688 1853.609375 120.953125 1788.488281 120.953125 C 1723.371094 120.953125 1670.519531 173.804688 1670.519531 238.921875 L 1670.519531 553.503906 C 1670.519531 618.621094 1723.371094 671.472656 1788.488281 671.472656 C 1853.609375 671.472656 1906.457031 618.621094 1906.457031 553.503906 Z M 1906.457031 553.503906 " fill-opacity="1" fill-rule="evenodd"/></g><g clip-path="url(#db8940f530)"><path fill="#cdcdcd" d="M 2221.039062 553.503906 L 2221.039062 238.921875 C 2221.039062 173.804688 2168.191406 120.953125 2103.070312 120.953125 C 2037.953125 120.953125 1985.101562 173.804688 1985.101562 238.921875 L 1985.101562 553.503906 C 1985.101562 618.621094 2037.953125 671.472656 2103.070312 671.472656 C 2168.191406 671.472656 2221.039062 618.621094 2221.039062 553.503906 Z M 2221.039062 553.503906 " fill-opacity="1" fill-rule="evenodd"/></g><path fill="#cdcdcd" d="M 2972.890625 951.449219 L 3195.460938 729.042969 C 3241.386719 682.953125 3241.386719 608.242188 3195.460938 562.15625 C 3149.371094 516.226562 3074.660156 516.226562 3028.574219 562.15625 L 2806.164062 784.722656 C 2760.078125 830.652344 2760.078125 905.523438 2806.164062 951.449219 C 2852.09375 997.539062 2926.964844 997.539062 2972.890625 951.449219 Z M 2972.890625 951.449219 " fill-opacity="1" fill-rule="evenodd"/><path fill="#cdcdcd" d="M 3366.121094 706.078125 L 3051.539062 391.496094 C 3005.609375 345.40625 2930.738281 345.40625 2884.808594 391.496094 C 2838.722656 437.421875 2838.722656 512.292969 2884.808594 558.222656 L 3199.390625 872.804688 C 3245.320312 918.890625 3320.191406 918.890625 3366.121094 872.804688 C 3412.207031 826.875 3412.207031 752.007812 3366.121094 706.078125 Z M 3366.121094 706.078125 " fill-opacity="1" fill-rule="evenodd"/><g clip-path="url(#96f30f9bbb)"><path fill="#cdcdcd" d="M 1631.199219 356.890625 L 2260.363281 356.890625 C 2325.480469 356.890625 2378.332031 304.039062 2378.332031 238.921875 C 2378.332031 173.804688 2325.480469 120.953125 2260.363281 120.953125 L 1631.199219 120.953125 C 1566.078125 120.953125 1513.230469 173.804688 1513.230469 238.921875 C 1513.230469 304.039062 1566.078125 356.890625 1631.199219 356.890625 Z M 1631.199219 356.890625 " fill-opacity="1" fill-rule="evenodd"/></g><path fill="#cdcdcd" d="M 1827.8125 1104.023438 L 1827.8125 1890.480469 C 1827.8125 1921.78125 1840.238281 1951.824219 1862.417969 1973.84375 L 2334.289062 2445.71875 C 2380.21875 2491.804688 2455.089844 2491.804688 2501.019531 2445.71875 C 2547.105469 2399.789062 2547.105469 2324.917969 2501.019531 2278.988281 L 2063.75 1841.5625 C 2063.75 1841.5625 2063.75 1104.023438 2063.75 1104.023438 C 2063.75 1038.90625 2010.898438 986.054688 1945.78125 986.054688 C 1880.660156 986.054688 1827.8125 1038.90625 1827.8125 1104.023438 Z M 1827.8125 1104.023438 " fill-opacity="1" fill-rule="evenodd"/><g clip-path="url(#d8db777182)"><path fill="#cdcdcd" d="M 372.867188 2008.449219 L 1316.617188 2008.449219 C 1381.734375 2008.449219 1434.582031 1955.597656 1434.582031 1890.480469 C 1434.582031 1825.363281 1381.734375 1772.511719 1316.617188 1772.511719 L 372.867188 1772.511719 C 307.75 1772.511719 254.898438 1825.363281 254.898438 1890.480469 C 254.898438 1955.597656 307.75 2008.449219 372.867188 2008.449219 Z M 372.867188 2008.449219 " fill-opacity="1" fill-rule="evenodd"/></g><path fill="#cdcdcd" d="M 844.742188 1457.929688 L 1316.617188 1457.929688 C 1381.734375 1457.929688 1434.582031 1405.078125 1434.582031 1339.960938 C 1434.582031 1274.84375 1381.734375 1221.992188 1316.617188 1221.992188 L 844.742188 1221.992188 C 779.625 1221.992188 726.773438 1274.84375 726.773438 1339.960938 C 726.773438 1405.078125 779.625 1457.929688 844.742188 1457.929688 Z M 844.742188 1457.929688 " fill-opacity="1" fill-rule="evenodd"/><path fill="#cdcdcd" d="M 844.742188 2558.96875 L 1316.617188 2558.96875 C 1381.734375 2558.96875 1434.582031 2506.117188 1434.582031 2441 C 1434.582031 2375.878906 1381.734375 2323.03125 1316.617188 2323.03125 L 844.742188 2323.03125 C 779.625 2323.03125 726.773438 2375.878906 726.773438 2441 C 726.773438 2506.117188 779.625 2558.96875 844.742188 2558.96875 Z M 844.742188 2558.96875 " fill-opacity="1" fill-rule="evenodd"/></svg>