<svg xmlns="http://www.w3.org/2000/svg" xmlns:xlink="http://www.w3.org/1999/xlink" width="5000" zoomAndPan="magnify" viewBox="0 0 3750 3749.999967" height="5000" preserveAspectRatio="xMidYMid meet" version="1.0"><defs><clipPath id="4f234a2fd8"><path d="M 18.75 0 L 3731.25 0 C 3741.605469 0 3750 8.394531 3750 18.75 L 3750 3731.25 C 3750 3741.605469 3741.605469 3750 3731.25 3750 L 18.75 3750 C 8.394531 3750 0 3741.605469 0 3731.25 L 0 18.75 C 0 8.394531 8.394531 0 18.75 0 Z M 18.75 0 " clip-rule="nonzero"/></clipPath><clipPath id="ec8294d049"><path d="M 0 0 L 3750 0 L 3750 3750 L 0 3750 Z M 0 0 " clip-rule="nonzero"/></clipPath><clipPath id="7be90991f4"><path d="M 18.75 0 L 3731.25 0 C 3741.605469 0 3750 8.394531 3750 18.75 L 3750 3731.25 C 3750 3741.605469 3741.605469 3750 3731.25 3750 L 18.75 3750 C 8.394531 3750 0 3741.605469 0 3731.25 L 0 18.75 C 0 8.394531 8.394531 0 18.75 0 Z M 18.75 0 " clip-rule="nonzero"/></clipPath><clipPath id="2d9176d722"><rect x="0" width="3750" y="0" height="3750"/></clipPath><clipPath id="bd205c7284"><path d="M 49 345 L 3709.792969 345 L 3709.792969 3448.523438 L 49 3448.523438 Z M 49 345 " clip-rule="nonzero"/></clipPath></defs><g clip-path="url(#4f234a2fd8)"><g transform="matrix(1, 0, 0, 1, 0, 0.000000000000269639)"><g clip-path="url(#2d9176d722)"><g clip-path="url(#ec8294d049)"><g clip-path="url(#7be90991f4)"><rect x="-825" width="5400" fill="#000000" height="5399.999952" y="-824.999993" fill-opacity="1"/></g></g></g></g><path stroke-linecap="butt" transform="matrix(0.75, 0, 0, 0.75, 0.00001675, 0.0001)" fill="none" stroke-linejoin="miter" d="M 24.999979 -0.000133333 L 4975.000229 -0.000133333 C 4988.807522 -0.000133333 5000.000231 11.192576 5000.000231 24.999868 L 5000.000231 4975.000118 C 5000.000231 4988.807411 4988.807522 5000.00012 4975.000229 5000.00012 L 24.999979 5000.00012 C 11.192687 5000.00012 -0.0000223333 4988.807411 -0.0000223333 4975.000118 L -0.0000223333 24.999868 C -0.0000223333 11.192576 11.192687 -0.000133333 24.999979 -0.000133333 Z M 24.999979 -0.000133333 " stroke="#4184e8" stroke-width="4" stroke-opacity="1" stroke-miterlimit="4"/></g><g clip-path="url(#bd205c7284)"><path fill="#cdcdcd" d="M 3692.433594 1753.871094 C 3681.363281 1742.800781 3666.347656 1736.578125 3650.683594 1736.578125 L 2923.5 1736.578125 C 2647.546875 1736.578125 2610.644531 1709.167969 2433.328125 1577.445312 C 2395.539062 1549.378906 2352.710938 1517.5625 2300.445312 1480.582031 C 2179.046875 1394.683594 2047.90625 1331.175781 1909.726562 1291.039062 L 2153.96875 868.003906 C 2195.828125 795.492188 2206.90625 710.847656 2185.15625 629.667969 C 2163.402344 548.484375 2111.488281 480.71875 2038.976562 438.855469 L 1950.597656 387.832031 C 1800.558594 301.214844 1608.058594 352.8125 1521.453125 502.820312 L 1025.566406 1361.722656 C 963.445312 1390.851562 902.824219 1425.183594 845.140625 1464.054688 L 540.394531 1669.457031 C 424.007812 1747.902344 344.398438 1844.671875 289.871094 1974.003906 L 67.222656 2502.082031 C 40.144531 2566.3125 43.71875 2644.726562 77.039062 2717.214844 C 106.894531 2782.164062 157.757812 2835.542969 217.539062 2866.371094 L 217.539062 3389.371094 C 217.539062 3410.464844 228.792969 3429.957031 247.058594 3440.503906 C 256.195312 3445.773438 266.386719 3448.414062 276.578125 3448.414062 C 286.773438 3448.414062 296.964844 3445.78125 306.101562 3440.503906 L 836.355469 3134.363281 C 845.332031 3129.183594 852.785156 3121.726562 857.964844 3112.753906 L 922.085938 3001.6875 C 940.351562 3118.648438 1041.757812 3208.429688 1163.753906 3208.429688 C 1237.933594 3208.429688 1304.5 3175.25 1349.394531 3122.945312 C 1353.441406 3127.640625 1357.675781 3132.199219 1362.097656 3136.628906 C 1408.402344 3182.933594 1469.773438 3208.429688 1534.914062 3208.429688 C 1610.804688 3208.429688 1682.007812 3172.003906 1727.8125 3113.511719 C 1855.925781 3187.539062 2000.339844 3236.71875 2198.289062 3236.71875 C 2198.863281 3236.71875 2199.496094 3236.71875 2200.082031 3236.71875 L 3650.683594 3235.636719 C 3683.292969 3235.636719 3709.726562 3209.199219 3709.726562 3176.59375 L 3709.726562 1795.621094 C 3709.726562 1779.96875 3703.503906 1764.941406 3692.433594 1753.871094 Z M 1623.71875 561.863281 C 1677.78125 468.238281 1797.921875 436.039062 1891.5625 490.089844 L 1979.941406 541.117188 C 2025.140625 567.214844 2057.515625 609.511719 2071.105469 660.226562 C 2084.691406 710.945312 2077.804688 763.765625 2051.714844 808.960938 L 1304.398438 2103.339844 C 1300.773438 2101.464844 1297.160156 2099.597656 1293.527344 2097.726562 C 1160.097656 2028.765625 1022.148438 1957.574219 847.382812 1906.53125 Z M 176.039062 2547.957031 L 398.6875 2019.871094 C 443.898438 1912.644531 509.898438 1832.40625 606.394531 1767.371094 L 909.191406 1563.285156 L 718.714844 1893.203125 C 676.464844 1897.785156 635.171875 1911.113281 597.148438 1933.070312 C 525.457031 1974.460938 474.238281 2041.042969 452.929688 2120.550781 C 433.933594 2191.445312 441.34375 2263.285156 469.027344 2325.664062 L 232.953125 2734.558594 C 213.066406 2716.523438 196.214844 2693.746094 184.332031 2667.902344 C 164.820312 2625.449219 161.792969 2581.730469 176.039062 2547.957031 Z M 335.621094 2879.351562 L 688.753906 3083.234375 L 335.621094 3287.105469 Z M 785.21875 3002.582031 L 357.230469 2755.484375 L 544.917969 2430.40625 C 579.929688 2462 622.617188 2486.074219 671.171875 2499.152344 C 799.125 2535.25 908.234375 2577.730469 1003.933594 2623.761719 Z M 1163.753906 3090.347656 C 1093.980469 3090.347656 1037.21875 3033.578125 1037.21875 2963.804688 L 1037.21875 2802.265625 L 1108.761719 2678.351562 C 1175.316406 2715.753906 1235.046875 2754.648438 1290.292969 2793.757812 L 1290.292969 2953.539062 C 1290.292969 2955.257812 1290.40625 2956.957031 1290.554688 2958.640625 C 1290.40625 2960.34375 1290.292969 2962.0625 1290.292969 2963.8125 C 1290.292969 3033.578125 1233.53125 3090.347656 1163.753906 3090.347656 Z M 1534.914062 3090.347656 C 1501.320312 3090.347656 1469.597656 3077.128906 1445.597656 3053.128906 C 1421.597656 3029.128906 1408.378906 2997.40625 1408.378906 2963.804688 C 1408.378906 2962.085938 1408.269531 2960.386719 1408.121094 2958.707031 C 1408.269531 2957 1408.378906 2955.28125 1408.378906 2953.53125 L 1408.378906 2881.714844 C 1428.636719 2897.40625 1448.484375 2912.984375 1468.039062 2928.34375 C 1522.144531 2970.832031 1574.367188 3011.800781 1627.800781 3049.277344 C 1604.164062 3074.804688 1570.523438 3090.347656 1534.914062 3090.347656 Z M 2199.902344 3118.636719 C 2199.359375 3118.636719 2198.863281 3118.636719 2198.324219 3118.636719 C 1901.636719 3118.636719 1742.410156 2993.628906 1540.980469 2835.457031 C 1341.882812 2679.121094 1116.21875 2501.917969 702.871094 2385.390625 C 702.628906 2385.324219 702.375 2385.253906 702.132812 2385.1875 C 653.347656 2372.117188 612.324219 2340.386719 586.601562 2295.839844 C 560.890625 2251.292969 553.921875 2199.898438 566.992188 2151.113281 C 580.128906 2102.070312 611.804688 2060.949219 656.183594 2035.332031 C 700.457031 2009.773438 751.78125 2002.882812 800.710938 2015.886719 C 970.964844 2063.929688 1107.382812 2134.433594 1239.296875 2202.621094 C 1435.132812 2303.839844 1637.632812 2408.5 1940.304688 2431.71875 C 1972.804688 2434.257812 2001.199219 2409.878906 2003.683594 2377.363281 C 2006.179688 2344.851562 1981.847656 2316.476562 1949.328125 2313.980469 C 1726.511719 2296.894531 1564.796875 2232.984375 1409.847656 2156.839844 L 1848.738281 1396.660156 C 1984.59375 1432.425781 2113.429688 1492.914062 2232.238281 1576.972656 C 2283.390625 1613.167969 2325.632812 1644.546875 2362.90625 1672.230469 C 2536.984375 1801.546875 2599.066406 1847.511719 2855.144531 1853.84375 L 2855.144531 3117.640625 Z M 3591.644531 3117.550781 L 2973.238281 3117.550781 L 2973.238281 1854.671875 L 3591.644531 1854.671875 Z M 3591.644531 3117.550781 " fill-opacity="1" fill-rule="nonzero"/></g></svg>