<svg xmlns="http://www.w3.org/2000/svg" xmlns:xlink="http://www.w3.org/1999/xlink" width="5000" zoomAndPan="magnify" viewBox="0 0 3750 3749.999967" height="5000" preserveAspectRatio="xMidYMid meet" version="1.0"><defs><clipPath id="624243bd30"><path d="M 18.75 0 L 3731.25 0 C 3741.605469 0 3750 8.394531 3750 18.75 L 3750 3731.25 C 3750 3741.605469 3741.605469 3750 3731.25 3750 L 18.75 3750 C 8.394531 3750 0 3741.605469 0 3731.25 L 0 18.75 C 0 8.394531 8.394531 0 18.75 0 Z M 18.75 0 " clip-rule="nonzero"/></clipPath><clipPath id="97f2ec1966"><path d="M 0 0 L 3750 0 L 3750 3750 L 0 3750 Z M 0 0 " clip-rule="nonzero"/></clipPath><clipPath id="8b52ea1b79"><path d="M 18.75 0 L 3731.25 0 C 3741.605469 0 3750 8.394531 3750 18.75 L 3750 3731.25 C 3750 3741.605469 3741.605469 3750 3731.25 3750 L 18.75 3750 C 8.394531 3750 0 3741.605469 0 3731.25 L 0 18.75 C 0 8.394531 8.394531 0 18.75 0 Z M 18.75 0 " clip-rule="nonzero"/></clipPath><clipPath id="f8fcbd28be"><rect x="0" width="3750" y="0" height="3750"/></clipPath><clipPath id="e504f3f183"><path d="M 47.070312 473 L 3702.570312 473 L 3702.570312 3280 L 47.070312 3280 Z M 47.070312 473 " clip-rule="nonzero"/></clipPath></defs><g clip-path="url(#624243bd30)"><g transform="matrix(1, 0, 0, 1, 0, 0.000000000000269639)"><g clip-path="url(#f8fcbd28be)"><g clip-path="url(#97f2ec1966)"><g clip-path="url(#8b52ea1b79)"><rect x="-825" width="5400" fill="#000000" height="5399.999952" y="-824.999993" fill-opacity="1"/></g></g></g></g><path stroke-linecap="butt" transform="matrix(0.75, 0, 0, 0.75, 0.00001675, 0.0001)" fill="none" stroke-linejoin="miter" d="M 24.999979 -0.000133333 L 4975.000229 -0.000133333 C 4988.807522 -0.000133333 5000.000231 11.192576 5000.000231 24.999868 L 5000.000231 4975.000118 C 5000.000231 4988.807411 4988.807522 5000.00012 4975.000229 5000.00012 L 24.999979 5000.00012 C 11.192687 5000.00012 -0.0000223333 4988.807411 -0.0000223333 4975.000118 L -0.0000223333 24.999868 C -0.0000223333 11.192576 11.192687 -0.000133333 24.999979 -0.000133333 Z M 24.999979 -0.000133333 " stroke="#a6a6a6" stroke-width="2" stroke-opacity="1" stroke-miterlimit="4"/></g><g clip-path="url(#e504f3f183)"><path fill="#cdcdcd" d="M 3674.910156 653.417969 C 3656.96875 638.03125 3633.25 631.539062 3609.890625 634.605469 L 3378.179688 669.261719 L 3378.179688 554.660156 C 3378.179688 530.632812 3367.597656 507.886719 3349.195312 492.398438 C 3330.792969 477.0625 3306.5625 470.367188 3282.898438 474.765625 L 2589.042969 597.546875 C 2263.582031 655.410156 2001.101562 871.53125 1875.097656 1158.34375 C 1749.046875 871.53125 1486.613281 655.410156 1161.050781 597.546875 L 467.300781 474.765625 C 443.582031 470.214844 419.402344 477.0625 401 492.398438 C 382.597656 507.886719 372.019531 530.632812 372.019531 554.660156 L 372.019531 669.261719 L 140.257812 634.605469 C 116.996094 631.539062 93.175781 638.03125 75.234375 653.417969 C 57.394531 668.851562 47.070312 691.292969 47.070312 714.910156 L 47.070312 2728.4375 C 47.070312 2768.972656 76.972656 2803.273438 117.101562 2808.84375 L 1269.417969 2968.636719 C 1493.054688 2999.5625 1690.617188 3101.792969 1811.5625 3249.058594 C 1811.765625 3249.367188 1812.019531 3249.675781 1812.277344 3249.929688 C 1813.246094 3251.15625 1814.269531 3252.28125 1815.292969 3253.457031 C 1816.367188 3254.582031 1817.4375 3255.65625 1818.511719 3256.726562 C 1819.6875 3257.902344 1820.863281 3259.027344 1822.140625 3260.050781 C 1823.0625 3260.816406 1823.980469 3261.636719 1824.953125 3262.351562 C 1827.101562 3264.089844 1829.347656 3265.671875 1831.699219 3267.15625 C 1832.3125 3267.515625 1832.925781 3267.921875 1833.539062 3268.28125 C 1835.328125 3269.355469 1837.167969 3270.375 1839.0625 3271.296875 C 1839.980469 3271.757812 1840.953125 3272.214844 1841.921875 3272.625 C 1843.867188 3273.496094 1845.808594 3274.3125 1847.851562 3275.027344 C 1850.410156 3275.949219 1853.015625 3276.765625 1855.675781 3277.378906 C 1856.441406 3277.582031 1857.207031 3277.789062 1857.972656 3277.941406 C 1859.253906 3278.25 1860.53125 3278.453125 1861.808594 3278.65625 C 1863.1875 3278.914062 1864.570312 3279.117188 1865.949219 3279.21875 C 1867.6875 3279.476562 1869.425781 3279.578125 1871.164062 3279.679688 C 1872.441406 3279.730469 1873.769531 3279.78125 1875.097656 3279.78125 C 1876.425781 3279.78125 1877.757812 3279.730469 1879.035156 3279.679688 C 1880.773438 3279.578125 1882.511719 3279.476562 1884.246094 3279.21875 C 1885.628906 3279.117188 1887.007812 3278.914062 1888.386719 3278.65625 C 1889.667969 3278.453125 1890.945312 3278.195312 1892.222656 3277.941406 C 1892.988281 3277.789062 1893.753906 3277.582031 1894.523438 3277.378906 C 1899.226562 3276.253906 1903.824219 3274.667969 1908.273438 3272.625 C 1909.242188 3272.214844 1910.214844 3271.757812 1911.136719 3271.296875 C 1913.027344 3270.375 1914.867188 3269.355469 1916.65625 3268.28125 C 1917.269531 3267.921875 1917.882812 3267.511719 1918.496094 3267.15625 C 1921.613281 3265.214844 1924.578125 3263.066406 1927.390625 3260.613281 C 1928.003906 3260.152344 1928.617188 3259.640625 1929.179688 3259.078125 C 1932.296875 3256.320312 1935.261719 3253.253906 1937.972656 3249.929688 C 2058.757812 3102.203125 2256.632812 2999.613281 2480.777344 2968.636719 L 3633.046875 2808.84375 C 3673.222656 2803.273438 3703.074219 2768.976562 3703.074219 2728.4375 L 3703.074219 714.910156 C 3703.074219 691.292969 3692.800781 668.851562 3674.910156 653.417969 Z M 534.363281 693.542969 L 534.363281 651.421875 L 1132.683594 757.335938 C 1324.726562 791.53125 1490.34375 891.875 1607.757812 1032.445312 C 1724.714844 1172.351562 1793.925781 1352.179688 1793.925781 1546.164062 L 1793.925781 2741.21875 C 1684.28125 2652.171875 1549.539062 2591.292969 1404.265625 2567.625 L 534.363281 2424.859375 Z M 2142.589844 1032.242188 C 2260.003906 891.773438 2425.519531 791.480469 2617.414062 757.335938 L 3215.832031 651.421875 L 3215.832031 2424.859375 L 2345.933594 2567.523438 C 2200.609375 2591.394531 2065.917969 2652.171875 1956.273438 2741.21875 L 1956.273438 1546.164062 C 1956.273438 1352.078125 2025.535156 1172.25 2142.539062 1032.292969 C 2142.539062 1032.292969 2142.539062 1032.242188 2142.589844 1032.242188 Z M 1291.65625 2807.875 L 209.417969 2657.746094 L 209.417969 809.167969 L 372.019531 833.5 L 372.019531 2493.8125 C 372.019531 2533.582031 400.796875 2567.421875 440.003906 2573.863281 L 1377.992188 2727.824219 C 1546.625 2755.378906 1696.855469 2844.21875 1793.925781 2972.929688 L 1793.925781 3009.425781 C 1656.167969 2905.199219 1481.296875 2834.046875 1291.65625 2807.875 Z M 3540.730469 2657.746094 L 2458.542969 2807.875 C 2268.847656 2834.046875 2094.03125 2905.148438 1956.269531 3009.425781 L 1956.269531 2972.929688 C 2053.339844 2844.21875 2203.574219 2755.378906 2372.15625 2727.722656 L 3310.195312 2573.863281 C 3349.398438 2567.421875 3378.179688 2533.582031 3378.179688 2493.8125 L 3378.179688 833.5 L 3540.730469 809.167969 Z M 3540.730469 2657.746094 " fill-opacity="1" fill-rule="nonzero"/></g></svg>