<svg xmlns="http://www.w3.org/2000/svg" xmlns:xlink="http://www.w3.org/1999/xlink" width="5000" zoomAndPan="magnify" viewBox="0 0 3750 3749.999967" height="5000" preserveAspectRatio="xMidYMid meet" version="1.0"><defs><g/><clipPath id="9d5a963f4d"><path d="M 963 0.398438 L 1831 0.398438 L 1831 1916 L 963 1916 Z M 963 0.398438 " clip-rule="nonzero"/></clipPath><clipPath id="78676b9d6c"><rect x="0" width="868" y="0" height="1916"/></clipPath><clipPath id="3c2945f4a5"><path d="M 1904 0.398438 L 2772 0.398438 L 2772 1916 L 1904 1916 Z M 1904 0.398438 " clip-rule="nonzero"/></clipPath><clipPath id="624916dd58"><rect x="0" width="868" y="0" height="1916"/></clipPath><clipPath id="95a5ddf80f"><path d="M 0 123 L 889 123 L 889 2039.199219 L 0 2039.199219 Z M 0 123 " clip-rule="nonzero"/></clipPath><clipPath id="d2505227fd"><rect x="0" width="889" y="0" height="1917"/></clipPath><clipPath id="fc1a29a539"><path d="M 2846 123 L 3750 123 L 3750 2039.199219 L 2846 2039.199219 Z M 2846 123 " clip-rule="nonzero"/></clipPath><clipPath id="6a838656ca"><rect x="0" width="904" y="0" height="1917"/></clipPath><clipPath id="d95e9bcfb7"><rect x="0" width="3750" y="0" height="2040"/></clipPath></defs><g transform="matrix(1, 0, 0, 1, 0, 860)"><g clip-path="url(#d95e9bcfb7)"><g clip-path="url(#9d5a963f4d)"><g transform="matrix(1, 0, 0, 1, 963, 0.000000000000113687)"><g clip-path="url(#78676b9d6c)"><g fill="#4ac092" fill-opacity="1"><g transform="translate(0.507448, 1411.189588)"><g><path d="M 432.015625 17.171875 C 360.671875 17.171875 297.695312 1.757812 243.09375 -29.0625 C 188.488281 -59.894531 145.769531 -102.613281 114.9375 -157.21875 C 84.113281 -211.820312 68.703125 -273.914062 68.703125 -343.5 C 68.703125 -413.957031 84.113281 -476.050781 114.9375 -529.78125 C 145.769531 -583.507812 188.488281 -625.785156 243.09375 -656.609375 C 297.695312 -687.441406 360.671875 -702.859375 432.015625 -702.859375 C 503.359375 -702.859375 566.332031 -687.441406 620.9375 -656.609375 C 675.550781 -625.785156 718.269531 -583.507812 749.09375 -529.78125 C 779.925781 -476.050781 795.34375 -413.957031 795.34375 -343.5 C 795.34375 -273.914062 779.925781 -211.820312 749.09375 -157.21875 C 718.269531 -102.613281 675.550781 -59.894531 620.9375 -29.0625 C 566.332031 1.757812 503.359375 17.171875 432.015625 17.171875 Z M 179.671875 -343.5 C 179.671875 -293.289062 190.457031 -249.03125 212.03125 -210.71875 C 233.613281 -172.40625 263.34375 -142.679688 301.21875 -121.546875 C 339.09375 -100.410156 382.691406 -89.84375 432.015625 -89.84375 C 481.335938 -89.84375 524.9375 -100.410156 562.8125 -121.546875 C 600.6875 -142.679688 630.410156 -172.40625 651.984375 -210.71875 C 673.566406 -249.03125 684.359375 -293.289062 684.359375 -343.5 C 684.359375 -393.707031 673.566406 -437.742188 651.984375 -475.609375 C 630.410156 -513.484375 600.6875 -543.207031 562.8125 -564.78125 C 524.9375 -586.363281 481.335938 -597.15625 432.015625 -597.15625 C 382.691406 -597.15625 339.09375 -586.363281 301.21875 -564.78125 C 263.34375 -543.207031 233.613281 -513.484375 212.03125 -475.609375 C 190.457031 -437.742188 179.671875 -393.707031 179.671875 -343.5 Z M 179.671875 -343.5 "/></g></g></g></g></g></g><g clip-path="url(#3c2945f4a5)"><g transform="matrix(1, 0, 0, 1, 1904, 0.000000000000113687)"><g clip-path="url(#624916dd58)"><g fill="#1761d0" fill-opacity="1"><g transform="translate(0.920116, 1411.189672)"><g><path d="M 432.015625 17.171875 C 360.671875 17.171875 297.695312 1.757812 243.09375 -29.0625 C 188.488281 -59.894531 145.769531 -102.613281 114.9375 -157.21875 C 84.113281 -211.820312 68.703125 -273.914062 68.703125 -343.5 C 68.703125 -413.957031 84.113281 -476.050781 114.9375 -529.78125 C 145.769531 -583.507812 188.488281 -625.785156 243.09375 -656.609375 C 297.695312 -687.441406 360.671875 -702.859375 432.015625 -702.859375 C 503.359375 -702.859375 566.332031 -687.441406 620.9375 -656.609375 C 675.550781 -625.785156 718.269531 -583.507812 749.09375 -529.78125 C 779.925781 -476.050781 795.34375 -413.957031 795.34375 -343.5 C 795.34375 -273.914062 779.925781 -211.820312 749.09375 -157.21875 C 718.269531 -102.613281 675.550781 -59.894531 620.9375 -29.0625 C 566.332031 1.757812 503.359375 17.171875 432.015625 17.171875 Z M 179.671875 -343.5 C 179.671875 -293.289062 190.457031 -249.03125 212.03125 -210.71875 C 233.613281 -172.40625 263.34375 -142.679688 301.21875 -121.546875 C 339.09375 -100.410156 382.691406 -89.84375 432.015625 -89.84375 C 481.335938 -89.84375 524.9375 -100.410156 562.8125 -121.546875 C 600.6875 -142.679688 630.410156 -172.40625 651.984375 -210.71875 C 673.566406 -249.03125 684.359375 -293.289062 684.359375 -343.5 C 684.359375 -393.707031 673.566406 -437.742188 651.984375 -475.609375 C 630.410156 -513.484375 600.6875 -543.207031 562.8125 -564.78125 C 524.9375 -586.363281 481.335938 -597.15625 432.015625 -597.15625 C 382.691406 -597.15625 339.09375 -586.363281 301.21875 -564.78125 C 263.34375 -543.207031 233.613281 -513.484375 212.03125 -475.609375 C 190.457031 -437.742188 179.671875 -393.707031 179.671875 -343.5 Z M 179.671875 -343.5 "/></g></g></g></g></g></g><g clip-path="url(#95a5ddf80f)"><g transform="matrix(1, 0, 0, 1, 0, 123)"><g clip-path="url(#d2505227fd)"><g fill="#4ac092" fill-opacity="1"><g transform="translate(0.00001675, 1411.49822)"><g><path d="M 134.765625 0 L 134.765625 -924.8125 L 492.796875 -924.8125 C 581.753906 -924.8125 652.875 -902.570312 706.15625 -858.09375 C 759.445312 -813.613281 786.09375 -753.941406 786.09375 -679.078125 C 786.09375 -634.160156 775.519531 -594.523438 754.375 -560.171875 C 733.238281 -525.816406 703.734375 -498.953125 665.859375 -479.578125 C 713.421875 -460.203125 749.753906 -431.578125 774.859375 -393.703125 C 799.960938 -355.828125 812.515625 -310.910156 812.515625 -258.953125 C 812.515625 -178.796875 785.429688 -115.597656 731.265625 -69.359375 C 677.097656 -23.117188 603.332031 0 509.96875 0 Z M 251.015625 -108.328125 L 507.328125 -108.328125 C 567.210938 -108.328125 613.226562 -121.976562 645.375 -149.28125 C 677.53125 -176.59375 693.609375 -214.910156 693.609375 -264.234375 C 693.609375 -313.554688 677.3125 -351.648438 644.71875 -378.515625 C 612.132812 -405.378906 565.894531 -418.8125 506 -418.8125 L 251.015625 -418.8125 Z M 251.015625 -524.5 L 490.15625 -524.5 C 547.40625 -524.5 591.222656 -537.269531 621.609375 -562.8125 C 651.992188 -588.351562 667.1875 -624.023438 667.1875 -669.828125 C 667.1875 -716.503906 651.769531 -752.613281 620.9375 -778.15625 C 590.113281 -803.695312 546.519531 -816.46875 490.15625 -816.46875 L 251.015625 -816.46875 Z M 251.015625 -524.5 "/></g></g></g></g></g></g><g clip-path="url(#fc1a29a539)"><g transform="matrix(1, 0, 0, 1, 2846, 123)"><g clip-path="url(#6a838656ca)"><g fill="#4ac092" fill-opacity="1"><g transform="translate(0.333076, 1411.49822)"><g><path d="M 134.765625 0 L 134.765625 -924.8125 L 251.015625 -924.8125 L 251.015625 -527.140625 L 383.140625 -527.140625 C 445.671875 -527.140625 492.789062 -538.367188 524.5 -560.828125 C 556.207031 -583.285156 581.3125 -619.617188 599.8125 -669.828125 L 694.921875 -924.8125 L 817.796875 -924.8125 L 704.171875 -623.578125 C 690.960938 -588.347656 674.890625 -557.742188 655.953125 -531.765625 C 637.015625 -505.785156 614.335938 -483.988281 587.921875 -466.375 L 853.46875 0 L 718.703125 0 L 479.578125 -424.09375 C 450.515625 -418.8125 418.367188 -416.171875 383.140625 -416.171875 L 251.015625 -416.171875 L 251.015625 0 Z M 134.765625 0 "/></g></g></g></g></g></g></g></g></svg>